<svg width="38" height="38" viewBox="0 0 38 38" fill="none" xmlns="http://www.w3.org/2000/svg">
<path d="M31.9402 15.5793C32.4559 15.5376 32.8429 15.0852 32.7713 14.5728C32.3905 11.8468 31.317 9.25798 29.6465 7.05723C27.7869 4.60727 25.2652 2.7405 22.379 1.67728C19.4928 0.61406 16.3627 0.398782 13.3581 1.05686C10.3536 1.71493 7.59998 3.21889 5.42246 5.39119C3.24494 7.56349 1.73438 10.3134 1.06909 13.3164C0.403802 16.3194 0.611565 19.45 1.66785 22.3388C2.72414 25.2275 4.58485 27.7537 7.03034 29.6192C9.22708 31.2949 11.8133 32.3747 14.5384 32.762C15.0506 32.8348 15.504 32.4489 15.5469 31.9334C15.5898 31.4178 15.206 30.9682 14.6943 30.8915C12.3255 30.5363 10.0791 29.5885 8.1666 28.1297C6.00534 26.481 4.36088 24.2484 3.42736 21.6954C2.49383 19.1424 2.31022 16.3756 2.89818 13.7216C3.48615 11.0677 4.82115 8.63733 6.74559 6.7175C8.67004 4.79767 11.1036 3.46851 13.7589 2.88692C16.4143 2.30532 19.1806 2.49558 21.7314 3.43523C24.2821 4.37488 26.5108 6.02469 28.1543 8.18991C29.6086 10.1059 30.5509 12.3546 30.9004 14.7243C30.9759 15.2361 31.4246 15.621 31.9402 15.5793Z" fill="#0056B3"/>
<path d="M28.5187 18.5226C28.6631 18.0769 28.4194 17.5943 27.9619 17.4934C26.4662 17.1634 24.9051 17.2279 23.4338 17.6877C21.6918 18.232 20.1617 19.3037 19.0546 20.7547C17.9476 22.2057 17.3182 23.9646 17.2533 25.7885C17.1885 27.6125 17.6914 29.4116 18.6926 30.9376C19.6938 32.4636 21.144 33.6412 22.8429 34.3079C24.5419 34.9746 26.406 35.0975 28.1778 34.6597C29.9496 34.2218 31.5418 33.2449 32.7348 31.8636C33.7422 30.697 34.4229 29.2906 34.7158 27.7872C34.8053 27.3274 34.4597 26.9116 33.9934 26.8666C33.5271 26.8217 33.1177 27.165 33.0176 27.6227C32.7653 28.7765 32.2286 29.8541 31.4508 30.7548C30.4875 31.8702 29.2017 32.6592 27.7708 33.0128C26.34 33.3663 24.8347 33.2671 23.4626 32.7287C22.0906 32.1903 20.9195 31.2393 20.111 30.007C19.3024 28.7747 18.8963 27.3218 18.9487 25.8488C19.0011 24.3759 19.5093 22.9555 20.4033 21.7837C21.2973 20.6119 22.533 19.7465 23.9398 19.3069C25.0756 18.952 26.2778 18.8887 27.4367 19.1166C27.8964 19.207 28.3744 18.9682 28.5187 18.5226Z" fill="#0056B3"/>
<path d="M18.1007 16.7593C18.1007 17.1736 17.9137 17.5074 17.8202 17.6225L12.5333 22.9093C11.9808 23.4618 10.9936 23.2546 10.656 22.9093C9.89641 22.1325 10.2963 21.1614 10.5912 20.773L15.3386 16.0257V6.31518C15.3386 5.59012 15.9716 5.2362 16.2881 5.14988C17.7554 4.95998 18.1079 5.94829 18.1007 6.46619V16.7593Z" fill="#0056B3"/>
<path d="M24.336 28.2619L22.4803 26.4061C21.8933 25.8192 22.0631 25.0539 22.2213 24.7446C22.9464 23.6397 24.0771 24.0684 24.5518 24.4209L26.3645 26.2335L32.0397 20.5583C32.713 19.885 33.5574 20.2777 33.8955 20.5583C34.6551 21.3006 34.0825 22.2918 33.7013 22.6946L27.5944 28.8014C26.6277 29.7681 24.9187 29.0819 24.336 28.2619Z" fill="#0056B3"/>
</svg>
