<svg width="44" height="50" viewBox="0 0 44 50" fill="none" xmlns="http://www.w3.org/2000/svg">
<path d="M33.8784 17.5356L26.9495 11.9849L27.9851 10.6921C28.4999 10.0495 29.2891 10.2393 29.6193 10.4145L31.0275 11.5426L35.884 5.48033C36.2778 5.07047 36.926 5.06495 37.2009 5.11343C38.699 5.6542 38.5292 6.80947 38.257 7.31951L33.3703 13.4195L34.5043 14.328C35.5212 15.1426 35.1676 15.9858 34.8637 16.3056L33.8784 17.5356Z" stroke="#0056B3" stroke-width="2"/>
<path d="M32.1348 20.0242L24.7297 14.0921C23.9302 13.616 23.2289 14.1228 22.9782 14.4358L7.20464 34.1257C6.30328 33.5516 5.55005 33.9305 5.28611 34.1917C4.43409 35.071 5.01173 36.0612 5.40706 36.4464L8.8036 39.1674L6.90836 41.5332L4.58574 39.6725C3.70241 39.0964 2.96024 39.5349 2.69957 39.8261C1.84377 40.5873 2.36368 41.5847 2.73061 41.9882L9.61119 47.5003C10.6382 48.3066 11.455 47.7237 11.735 47.3315C12.4249 46.4703 11.9282 45.6231 11.5937 45.3071L9.24601 43.4264L11.1513 41.0481L14.7851 43.9592C15.2448 44.2452 15.832 44.1196 16.0681 44.0211C17.5404 43.1455 16.9215 41.9578 16.428 41.4734L20.1282 36.8544L16.4319 33.8934C15.875 33.1349 16.1337 32.4145 16.3326 32.1492C16.8803 31.3221 17.8638 31.4235 18.287 31.5776L21.9833 34.5387L23.7883 32.2856L20.1794 29.3945C19.5101 28.8583 19.7878 27.9299 20.0103 27.5328C20.7305 26.5314 21.6866 26.7795 22.0747 27.0287L25.6835 29.9198L27.4986 27.6541L23.8897 24.7631C23.3602 24.3389 23.4375 23.5788 23.5423 23.2517C23.9367 22.0223 25.1068 22.1349 25.6425 22.3448L29.3637 25.3259L32.372 21.5707C32.8414 20.9438 32.4094 20.2785 32.1348 20.0242Z" stroke="#0056B3" stroke-width="2"/>
</svg>
