<svg width="40" height="30" viewBox="0 0 40 30" fill="none" xmlns="http://www.w3.org/2000/svg">
<path d="M2.33309 25.1089V4.86491C2.33309 2.76946 4.03415 2.27346 4.88468 2.28739H14.7147C16.1313 2.29854 17.0153 3.24874 17.2802 3.72244L18.6885 6.7876C18.9562 7.70157 19.7853 7.87434 20.1665 7.84647H34.8905C37.0099 7.86876 37.5211 9.67628 37.5118 10.5773V25.2064C37.5118 27.7254 35.6341 28.4202 34.6953 28.4527H5.16357C2.45301 28.4081 2.14718 26.2049 2.33309 25.1089Z" stroke="#0056B3" stroke-width="3"/>
<path d="M17.0698 15.3761V15.376M17.0698 15.376V13.4228C17.0624 13.18 17.2068 12.6944 17.8431 12.6944H21.2457C21.4925 12.6907 21.9859 12.8335 21.9859 13.4338V15.4202H23.864C24.1438 15.4128 24.7036 15.5636 24.7036 16.2258V19.5476C24.7073 19.8198 24.5379 20.3642 23.8308 20.3642H21.9859V22.2845C21.9675 22.5567 21.7782 23.1011 21.1684 23.1011H17.821C17.5632 23.0643 17.0477 22.8561 17.0477 22.3176V20.3532H15.0812C14.8198 20.3238 14.2969 20.1281 14.2969 19.5807V16.1927C14.3227 15.9425 14.509 15.4423 15.0481 15.4423H17.0698V15.376Z" stroke="#0056B3" stroke-width="2"/>
</svg>
