<svg width="1410" height="748" viewBox="0 0 1410 748" fill="none" xmlns="http://www.w3.org/2000/svg">
<rect width="1410" height="748" fill="white"/>
<path d="M455.82 500.82C476.301 521.301 476.512 555.129 451.969 570.51C428.155 585.435 401.708 595.996 373.86 601.535C328.759 610.506 282.011 605.902 239.527 588.304C197.043 570.707 160.731 540.907 135.184 502.672C109.636 464.437 96 419.486 96 373.501C96 327.517 109.636 282.565 135.184 244.33C160.731 206.096 197.043 176.296 239.527 158.698C282.011 141.101 328.759 136.496 373.86 145.467C401.708 151.007 428.155 161.568 451.969 176.492C476.512 191.873 476.301 225.701 455.82 246.182V246.182C435.34 266.663 402.131 265.324 375.174 254.73C368.151 251.971 360.866 249.827 353.397 248.341C328.643 243.417 302.984 245.944 279.666 255.603C256.348 265.262 236.418 281.618 222.396 302.604C208.374 323.59 200.889 348.262 200.889 373.501C200.889 398.741 208.374 423.413 222.396 444.399C236.418 465.384 256.348 481.741 279.666 491.399C302.984 501.058 328.643 503.585 353.397 498.661C360.866 497.176 368.151 495.032 375.174 492.272C402.131 481.679 435.34 480.34 455.82 500.82V500.82Z" fill="#010B2A"/>
<path d="M455.82 500.82C476.301 521.301 476.512 555.129 451.969 570.51C428.155 585.435 401.708 595.996 373.86 601.535C328.759 610.506 282.011 605.902 239.527 588.304C197.043 570.707 160.731 540.907 135.184 502.672C109.636 464.437 96 419.486 96 373.501C96 327.517 109.636 282.565 135.184 244.33C160.731 206.096 197.043 176.296 239.527 158.698C282.011 141.101 328.759 136.496 373.86 145.467C401.708 151.007 428.155 161.568 451.969 176.492C476.512 191.873 476.301 225.701 455.82 246.182V246.182C435.34 266.663 402.131 265.324 375.174 254.73C368.151 251.971 360.866 249.827 353.397 248.341C328.643 243.417 302.984 245.944 279.666 255.603C256.348 265.262 236.418 281.618 222.396 302.604C208.374 323.59 200.889 348.262 200.889 373.501C200.889 398.741 208.374 423.413 222.396 444.399C236.418 465.384 256.348 481.741 279.666 491.399C302.984 501.058 328.643 503.585 353.397 498.661C360.866 497.176 368.151 495.032 375.174 492.272C402.131 481.679 435.34 480.34 455.82 500.82V500.82Z" fill="#010B2A"/>
<path d="M439.071 297.203V375.179C439.071 406.369 466.591 411.996 480.351 410.911H554.02C575.74 410.911 585.086 392.595 587.044 383.437C596.57 351.802 568.997 338.388 554.02 335.635H513.058V297.203C512.677 271.031 491.095 262.264 480.351 261.153C447.327 259.882 439.071 284.657 439.071 297.203Z" fill="#0154AF" fill-opacity="0.8"/>
<path d="M511.702 449.799L511.702 371.823C511.702 340.633 484.182 335.005 470.422 336.091L396.754 336.091C375.034 336.091 365.688 354.407 363.73 363.565C354.204 395.2 381.777 408.614 396.754 411.367L437.716 411.367L437.716 449.799C438.097 475.971 459.679 484.738 470.422 485.849C503.446 487.12 511.702 462.345 511.702 449.799Z" fill="#010B2A" fill-opacity="0.8"/>
<path d="M638.76 465.32C632.787 465.32 627.773 464.36 623.72 462.44C619.667 460.52 616.36 458.013 613.8 454.92C611.293 451.773 609.373 448.36 608.04 444.68C606.707 441 605.8 437.4 605.32 433.88C604.84 430.36 604.6 427.267 604.6 424.6V376.6H621.56V419.08C621.56 422.44 621.827 425.907 622.36 429.48C622.947 433 624.013 436.28 625.56 439.32C627.16 442.36 629.373 444.813 632.2 446.68C635.08 448.547 638.813 449.48 643.4 449.48C646.387 449.48 649.213 449 651.88 448.04C654.547 447.027 656.867 445.427 658.84 443.24C660.867 441.053 662.44 438.173 663.56 434.6C664.733 431.027 665.32 426.68 665.32 421.56L675.72 425.48C675.72 433.32 674.253 440.253 671.32 446.28C668.387 452.253 664.173 456.92 658.68 460.28C653.187 463.64 646.547 465.32 638.76 465.32ZM667.32 463V438.04H665.32V376.6H682.2V463H667.32ZM704.638 463V376.6H719.518V397.56L717.438 394.84C718.504 392.067 719.891 389.533 721.598 387.24C723.304 384.893 725.278 382.973 727.518 381.48C729.704 379.88 732.131 378.653 734.798 377.8C737.518 376.893 740.291 376.36 743.118 376.2C745.944 375.987 748.664 376.12 751.278 376.6V392.28C748.451 391.533 745.304 391.32 741.838 391.64C738.424 391.96 735.278 393.053 732.398 394.92C729.678 396.68 727.518 398.813 725.918 401.32C724.371 403.827 723.251 406.627 722.558 409.72C721.864 412.76 721.518 415.987 721.518 419.4V463H704.638ZM803.27 465.4C794.683 465.4 787.137 463.533 780.63 459.8C774.177 456.013 769.137 450.76 765.51 444.04C761.937 437.267 760.15 429.427 760.15 420.52C760.15 411.08 761.91 402.893 765.43 395.96C769.003 389.027 773.963 383.667 780.31 379.88C786.657 376.093 794.043 374.2 802.47 374.2C811.27 374.2 818.763 376.253 824.95 380.36C831.137 384.413 835.75 390.2 838.79 397.72C841.883 405.24 843.11 414.173 842.47 424.52H825.75V418.44C825.643 408.413 823.723 401 819.99 396.2C816.31 391.4 810.683 389 803.11 389C794.737 389 788.443 391.64 784.23 396.92C780.017 402.2 777.91 409.827 777.91 419.8C777.91 429.293 780.017 436.653 784.23 441.88C788.443 447.053 794.523 449.64 802.47 449.64C807.697 449.64 812.203 448.467 815.99 446.12C819.83 443.72 822.817 440.307 824.95 435.88L841.35 441.08C837.99 448.813 832.897 454.813 826.07 459.08C819.243 463.293 811.643 465.4 803.27 465.4ZM772.47 424.52V411.48H834.15V424.52H772.47Z" fill="#010B2A"/>
<path d="M902.96 465.4C894.693 465.4 887.227 463.987 880.56 461.16C873.947 458.28 868.48 454.2 864.16 448.92C859.893 443.587 857.12 437.267 855.84 429.96L873.28 427.32C875.04 434.36 878.72 439.853 884.32 443.8C889.92 447.693 896.453 449.64 903.92 449.64C908.56 449.64 912.827 448.92 916.72 447.48C920.613 445.987 923.733 443.88 926.08 441.16C928.48 438.387 929.68 435.08 929.68 431.24C929.68 429.16 929.307 427.32 928.56 425.72C927.867 424.12 926.88 422.733 925.6 421.56C924.373 420.333 922.853 419.293 921.04 418.44C919.28 417.533 917.333 416.76 915.2 416.12L885.68 407.4C882.8 406.547 879.867 405.453 876.88 404.12C873.893 402.733 871.147 400.947 868.64 398.76C866.187 396.52 864.187 393.773 862.64 390.52C861.093 387.213 860.32 383.213 860.32 378.52C860.32 371.427 862.133 365.427 865.76 360.52C869.44 355.56 874.4 351.827 880.64 349.32C886.88 346.76 893.867 345.48 901.6 345.48C909.387 345.587 916.347 346.973 922.48 349.64C928.667 352.307 933.787 356.147 937.84 361.16C941.947 366.12 944.773 372.147 946.32 379.24L928.4 382.28C927.6 377.96 925.893 374.253 923.28 371.16C920.667 368.013 917.467 365.613 913.68 363.96C909.893 362.253 905.787 361.373 901.36 361.32C897.093 361.213 893.173 361.853 889.6 363.24C886.08 364.627 883.253 366.573 881.12 369.08C879.04 371.587 878 374.467 878 377.72C878 380.92 878.933 383.507 880.8 385.48C882.667 387.453 884.96 389.027 887.68 390.2C890.453 391.32 893.2 392.253 895.92 393L917.2 399C919.867 399.747 922.88 400.76 926.24 402.04C929.653 403.267 932.933 405 936.08 407.24C939.28 409.48 941.92 412.467 944 416.2C946.08 419.88 947.12 424.52 947.12 430.12C947.12 435.933 945.947 441.053 943.6 445.48C941.253 449.853 938.027 453.533 933.92 456.52C929.867 459.453 925.173 461.667 919.84 463.16C914.507 464.653 908.88 465.4 902.96 465.4ZM974.286 501.4L991.006 455.88L991.246 469.32L953.566 376.6H971.006L999.166 448.2H994.046L1020.93 376.6H1037.89L990.206 501.4H974.286ZM1111.06 463V420.52C1111.06 417.16 1110.77 413.72 1110.18 410.2C1109.65 406.627 1108.58 403.32 1106.98 400.28C1105.43 397.24 1103.22 394.787 1100.34 392.92C1097.51 391.053 1093.81 390.12 1089.22 390.12C1086.23 390.12 1083.41 390.627 1080.74 391.64C1078.07 392.6 1075.73 394.173 1073.7 396.36C1071.73 398.547 1070.15 401.427 1068.98 405C1067.86 408.573 1067.3 412.92 1067.3 418.04L1056.9 414.12C1056.9 406.28 1058.37 399.373 1061.3 393.4C1064.23 387.373 1068.45 382.68 1073.94 379.32C1079.43 375.96 1086.07 374.28 1093.86 374.28C1099.83 374.28 1104.85 375.24 1108.9 377.16C1112.95 379.08 1116.23 381.613 1118.74 384.76C1121.3 387.853 1123.25 391.24 1124.58 394.92C1125.91 398.6 1126.82 402.2 1127.3 405.72C1127.78 409.24 1128.02 412.333 1128.02 415V463H1111.06ZM1050.34 463V376.6H1065.3V401.56H1067.3V463H1050.34ZM1184.72 465.4C1175.87 465.4 1168.35 463.427 1162.16 459.48C1155.98 455.533 1151.23 450.12 1147.92 443.24C1144.67 436.36 1143.02 428.547 1142.96 419.8C1143.02 410.893 1144.72 403.027 1148.08 396.2C1151.44 389.32 1156.24 383.933 1162.48 380.04C1168.72 376.147 1176.22 374.2 1184.96 374.2C1194.4 374.2 1202.46 376.547 1209.12 381.24C1215.84 385.933 1220.27 392.36 1222.4 400.52L1205.76 405.32C1204.11 400.467 1201.39 396.707 1197.6 394.04C1193.87 391.32 1189.58 389.96 1184.72 389.96C1179.23 389.96 1174.72 391.267 1171.2 393.88C1167.68 396.44 1165.07 399.96 1163.36 404.44C1161.66 408.92 1160.78 414.04 1160.72 419.8C1160.78 428.707 1162.8 435.907 1166.8 441.4C1170.86 446.893 1176.83 449.64 1184.72 449.64C1190.11 449.64 1194.46 448.413 1197.76 445.96C1201.12 443.453 1203.68 439.88 1205.44 435.24L1222.4 439.24C1219.58 447.667 1214.91 454.147 1208.4 458.68C1201.9 463.16 1194 465.4 1184.72 465.4Z" fill="#010B2A"/>
</svg>
