<svg width="7156" height="3046" viewBox="0 0 7156 3046" fill="none" xmlns="http://www.w3.org/2000/svg">
<rect width="7156" height="3046" fill="white"/>
<path d="M2345.28 2167.28C2403.86 2225.86 2404.37 2321.75 2338.65 2372.18C2199.72 2478.79 2037.63 2552.56 1864.57 2586.98C1642.27 2631.2 1411.85 2608.5 1202.44 2521.77C993.041 2435.03 814.06 2288.14 688.136 2099.68C562.212 1911.22 495 1689.66 495 1463C495 1236.34 562.212 1014.78 688.136 826.317C814.06 637.858 993.041 490.972 1202.44 404.234C1411.85 317.496 1642.27 294.801 1864.57 339.02C2037.63 373.443 2199.72 447.214 2338.65 553.821C2404.37 604.253 2403.86 700.143 2345.28 758.722L2191.84 912.164C2133.26 970.742 2038.88 968.835 1968.12 925.752C1905.5 887.627 1836.37 860.538 1763.71 846.086C1641.7 821.816 1515.23 834.272 1400.29 881.88C1285.36 929.487 1187.12 1010.11 1118.01 1113.55C1048.89 1216.98 1012 1338.6 1012 1463C1012 1587.4 1048.89 1709.02 1118.01 1812.45C1187.12 1915.89 1285.36 1996.51 1400.29 2044.12C1515.23 2091.73 1641.7 2104.18 1763.71 2079.91C1836.37 2065.46 1905.5 2038.37 1968.12 2000.25C2038.88 1957.17 2133.26 1955.26 2191.84 2013.84L2345.28 2167.28Z" fill="#010B2A"/>
<path d="M2345.28 2167.28C2403.86 2225.86 2404.37 2321.75 2338.65 2372.18C2199.72 2478.79 2037.63 2552.56 1864.57 2586.98C1642.27 2631.2 1411.85 2608.5 1202.44 2521.77C993.041 2435.03 814.06 2288.14 688.136 2099.68C562.212 1911.22 495 1689.66 495 1463C495 1236.34 562.212 1014.78 688.136 826.317C814.06 637.858 993.041 490.972 1202.44 404.234C1411.85 317.496 1642.27 294.801 1864.57 339.02C2037.63 373.443 2199.72 447.214 2338.65 553.821C2404.37 604.253 2403.86 700.143 2345.28 758.722L2191.84 912.164C2133.26 970.742 2038.88 968.835 1968.12 925.752C1905.5 887.627 1836.37 860.538 1763.71 846.086C1641.7 821.816 1515.23 834.272 1400.29 881.88C1285.36 929.487 1187.12 1010.11 1118.01 1113.55C1048.89 1216.98 1012 1338.6 1012 1463C1012 1587.4 1048.89 1709.02 1118.01 1812.45C1187.12 1915.89 1285.36 1996.51 1400.29 2044.12C1515.23 2091.73 1641.7 2104.18 1763.71 2079.91C1836.37 2065.46 1905.5 2038.37 1968.12 2000.25C2038.88 1957.17 2133.26 1955.26 2191.84 2013.84L2345.28 2167.28Z" fill="#010B2A"/>
<path d="M2186 1086.92V1471.27C2186 1625.01 2321.65 1652.74 2389.47 1647.39H2752.58C2859.64 1647.39 2905.71 1557.11 2915.36 1511.97C2962.31 1356.04 2826.41 1289.92 2752.58 1276.36H2550.68V1086.92C2548.8 957.921 2442.42 914.711 2389.47 909.232C2226.69 902.97 2186 1025.08 2186 1086.92Z" fill="#0154AF" fill-opacity="0.8"/>
<path d="M2544 1839.08L2544 1454.73C2544 1300.99 2408.35 1273.26 2340.53 1278.61L1977.42 1278.61C1870.36 1278.61 1824.29 1368.89 1814.64 1414.03C1767.69 1569.96 1903.59 1636.08 1977.42 1649.64L2179.32 1649.64L2179.32 1839.08C2181.2 1968.08 2287.58 2011.29 2340.53 2016.77C2503.31 2023.03 2544 1900.92 2544 1839.08Z" fill="#010B2A" fill-opacity="0.8"/>
<path d="M3208.8 1898.6C3178.93 1898.6 3153.87 1893.8 3133.6 1884.2C3113.33 1874.6 3096.8 1862.07 3084 1846.6C3071.47 1830.87 3061.87 1813.8 3055.2 1795.4C3048.53 1777 3044 1759 3041.6 1741.4C3039.2 1723.8 3038 1708.33 3038 1695V1455H3122.8V1667.4C3122.8 1684.2 3124.13 1701.53 3126.8 1719.4C3129.73 1737 3135.07 1753.4 3142.8 1768.6C3150.8 1783.8 3161.87 1796.07 3176 1805.4C3190.4 1814.73 3209.07 1819.4 3232 1819.4C3246.93 1819.4 3261.07 1817 3274.4 1812.2C3287.73 1807.13 3299.33 1799.13 3309.2 1788.2C3319.33 1777.27 3327.2 1762.87 3332.8 1745C3338.67 1727.13 3341.6 1705.4 3341.6 1679.8L3393.6 1699.4C3393.6 1738.6 3386.27 1773.27 3371.6 1803.4C3356.93 1833.27 3335.87 1856.6 3308.4 1873.4C3280.93 1890.2 3247.73 1898.6 3208.8 1898.6ZM3351.6 1887V1762.2H3341.6V1455H3426V1887H3351.6ZM3538.19 1887V1455H3612.59V1559.8L3602.19 1546.2C3607.52 1532.33 3614.45 1519.67 3622.99 1508.2C3631.52 1496.47 3641.39 1486.87 3652.59 1479.4C3663.52 1471.4 3675.65 1465.27 3688.99 1461C3702.59 1456.47 3716.45 1453.8 3730.59 1453C3744.72 1451.93 3758.32 1452.6 3771.39 1455V1533.4C3757.25 1529.67 3741.52 1528.6 3724.19 1530.2C3707.12 1531.8 3691.39 1537.27 3676.99 1546.6C3663.39 1555.4 3652.59 1566.07 3644.59 1578.6C3636.85 1591.13 3631.25 1605.13 3627.79 1620.6C3624.32 1635.8 3622.59 1651.93 3622.59 1669V1887H3538.19ZM4031.35 1899C3988.42 1899 3950.68 1889.67 3918.15 1871C3885.88 1852.07 3860.68 1825.8 3842.55 1792.2C3824.68 1758.33 3815.75 1719.13 3815.75 1674.6C3815.75 1627.4 3824.55 1586.47 3842.15 1551.8C3860.02 1517.13 3884.82 1490.33 3916.55 1471.4C3948.28 1452.47 3985.22 1443 4027.35 1443C4071.35 1443 4108.82 1453.27 4139.75 1473.8C4170.68 1494.07 4193.75 1523 4208.95 1560.6C4224.42 1598.2 4230.55 1642.87 4227.35 1694.6H4143.75V1664.2C4143.22 1614.07 4133.62 1577 4114.95 1553C4096.55 1529 4068.42 1517 4030.55 1517C3988.68 1517 3957.22 1530.2 3936.15 1556.6C3915.08 1583 3904.55 1621.13 3904.55 1671C3904.55 1718.47 3915.08 1755.27 3936.15 1781.4C3957.22 1807.27 3987.62 1820.2 4027.35 1820.2C4053.48 1820.2 4076.02 1814.33 4094.95 1802.6C4114.15 1790.6 4129.08 1773.53 4139.75 1751.4L4221.75 1777.4C4204.95 1816.07 4179.48 1846.07 4145.35 1867.4C4111.22 1888.47 4073.22 1899 4031.35 1899ZM3877.35 1694.6V1629.4H4185.75V1694.6H3877.35Z" fill="#010B2A"/>
<path d="M4591.8 1885C4550.47 1885 4513.13 1877.93 4479.8 1863.8C4446.73 1849.4 4419.4 1829 4397.8 1802.6C4376.47 1775.93 4362.6 1744.33 4356.2 1707.8L4443.4 1694.6C4452.2 1729.8 4470.6 1757.27 4498.6 1777C4526.6 1796.47 4559.27 1806.2 4596.6 1806.2C4619.8 1806.2 4641.13 1802.6 4660.6 1795.4C4680.07 1787.93 4695.67 1777.4 4707.4 1763.8C4719.4 1749.93 4725.4 1733.4 4725.4 1714.2C4725.4 1703.8 4723.53 1694.6 4719.8 1686.6C4716.33 1678.6 4711.4 1671.67 4705 1665.8C4698.87 1659.67 4691.27 1654.47 4682.2 1650.2C4673.4 1645.67 4663.67 1641.8 4653 1638.6L4505.4 1595C4491 1590.73 4476.33 1585.27 4461.4 1578.6C4446.47 1571.67 4432.73 1562.73 4420.2 1551.8C4407.93 1540.6 4397.93 1526.87 4390.2 1510.6C4382.47 1494.07 4378.6 1474.07 4378.6 1450.6C4378.6 1415.13 4387.67 1385.13 4405.8 1360.6C4424.2 1335.8 4449 1317.13 4480.2 1304.6C4511.4 1291.8 4546.33 1285.4 4585 1285.4C4623.93 1285.93 4658.73 1292.87 4689.4 1306.2C4720.33 1319.53 4745.93 1338.73 4766.2 1363.8C4786.73 1388.6 4800.87 1418.73 4808.6 1454.2L4719 1469.4C4715 1447.8 4706.47 1429.27 4693.4 1413.8C4680.33 1398.07 4664.33 1386.07 4645.4 1377.8C4626.47 1369.27 4605.93 1364.87 4583.8 1364.6C4562.47 1364.07 4542.87 1367.27 4525 1374.2C4507.4 1381.13 4493.27 1390.87 4482.6 1403.4C4472.2 1415.93 4467 1430.33 4467 1446.6C4467 1462.6 4471.67 1475.53 4481 1485.4C4490.33 1495.27 4501.8 1503.13 4515.4 1509C4529.27 1514.6 4543 1519.27 4556.6 1523L4663 1553C4676.33 1556.73 4691.4 1561.8 4708.2 1568.2C4725.27 1574.33 4741.67 1583 4757.4 1594.2C4773.4 1605.4 4786.6 1620.33 4797 1639C4807.4 1657.4 4812.6 1680.6 4812.6 1708.6C4812.6 1737.67 4806.73 1763.27 4795 1785.4C4783.27 1807.27 4767.13 1825.67 4746.6 1840.6C4726.33 1855.27 4702.87 1866.33 4676.2 1873.8C4649.53 1881.27 4621.4 1885 4591.8 1885ZM4948.43 2065L5032.03 1837.4L5033.23 1904.6L4844.83 1441H4932.03L5072.83 1799H5047.23L5181.63 1441H5266.43L5028.03 2065H4948.43ZM5632.29 1873V1660.6C5632.29 1643.8 5630.83 1626.6 5627.89 1609C5625.23 1591.13 5619.89 1574.6 5611.89 1559.4C5604.16 1544.2 5593.09 1531.93 5578.69 1522.6C5564.56 1513.27 5546.03 1508.6 5523.09 1508.6C5508.16 1508.6 5494.03 1511.13 5480.69 1516.2C5467.36 1521 5455.63 1528.87 5445.49 1539.8C5435.63 1550.73 5427.76 1565.13 5421.89 1583C5416.29 1600.87 5413.49 1622.6 5413.49 1648.2L5361.49 1628.6C5361.49 1589.4 5368.83 1554.87 5383.49 1525C5398.16 1494.87 5419.23 1471.4 5446.69 1454.6C5474.16 1437.8 5507.36 1429.4 5546.29 1429.4C5576.16 1429.4 5601.23 1434.2 5621.49 1443.8C5641.76 1453.4 5658.16 1466.07 5670.69 1481.8C5683.49 1497.27 5693.23 1514.2 5699.89 1532.6C5706.56 1551 5711.09 1569 5713.49 1586.6C5715.89 1604.2 5717.09 1619.67 5717.09 1633V1873H5632.29ZM5328.69 1873V1441H5403.49V1565.8H5413.49V1873H5328.69ZM6000.61 1885C5956.35 1885 5918.75 1875.13 5887.81 1855.4C5856.88 1835.67 5833.15 1808.6 5816.61 1774.2C5800.35 1739.8 5792.08 1700.73 5791.81 1657C5792.08 1612.47 5800.61 1573.13 5817.41 1539C5834.21 1504.6 5858.21 1477.67 5889.41 1458.2C5920.61 1438.73 5958.08 1429 6001.81 1429C6049.01 1429 6089.28 1440.73 6122.61 1464.2C6156.21 1487.67 6178.35 1519.8 6189.01 1560.6L6105.81 1584.6C6097.55 1560.33 6083.95 1541.53 6065.01 1528.2C6046.35 1514.6 6024.88 1507.8 6000.61 1507.8C5973.15 1507.8 5950.61 1514.33 5933.01 1527.4C5915.41 1540.2 5902.35 1557.8 5893.81 1580.2C5885.28 1602.6 5880.88 1628.2 5880.61 1657C5880.88 1701.53 5891.01 1737.53 5911.01 1765C5931.28 1792.47 5961.15 1806.2 6000.61 1806.2C6027.55 1806.2 6049.28 1800.07 6065.81 1787.8C6082.61 1775.27 6095.41 1757.4 6104.21 1734.2L6189.01 1754.2C6174.88 1796.33 6151.55 1828.73 6119.01 1851.4C6086.48 1873.8 6047.01 1885 6000.61 1885Z" fill="#010B2A"/>
</svg>
